<svg width="24" height="24" viewBox="0 0 24 24" fill="none" xmlns="http://www.w3.org/2000/svg">
<g filter="url(#filter0_b)">
<path d="M6.70863 6.896C7.13529 6.87467 7.48729 6.864 7.76463 6.864C8.72463 6.864 9.60463 6.928 10.4046 7.056C10.81 7.09867 11.1993 7.16267 11.5726 7.248V9.536C11.1246 9.49333 10.7886 9.456 10.5646 9.424C10.3833 9.41333 10.09 9.38667 9.68463 9.344C9.27929 9.32267 9.01263 9.312 8.88463 9.312C8.23396 9.312 7.75396 9.328 7.44463 9.36C7.14596 9.38133 6.90063 9.44533 6.70863 9.552V6.896ZM7.76463 18.128C6.69796 18.128 5.84463 18.048 5.20463 17.888C4.57529 17.728 4.08463 17.4453 3.73263 17.04C3.38063 16.6347 3.12996 16.0747 2.98063 15.36C2.84196 14.6453 2.77263 13.6907 2.77263 12.496C2.77263 11.4827 2.82063 10.6507 2.91663 10C3.01263 9.34933 3.17796 8.816 3.41263 8.4C3.65796 7.97333 3.98863 7.648 4.40463 7.424C4.82063 7.2 5.36463 7.04533 6.03663 6.96V12.496C6.03663 13.2533 6.05796 13.8347 6.10063 14.24C6.14329 14.6347 6.22329 14.9387 6.34063 15.152C6.46863 15.376 6.64996 15.5307 6.88463 15.616C7.12996 15.7013 7.47663 15.744 7.92463 15.744V18.128H7.76463ZM8.59663 13.776H7.46063V11.456H11.6206V17.728C11.1193 17.8453 10.4953 17.936 9.74863 18C9.38596 18.0533 9.00196 18.0853 8.59663 18.096V13.776ZM18.2951 13.936C18.2951 13.392 18.2898 13.0293 18.2791 12.848C18.2685 12.592 18.2365 12.4 18.1831 12.272C18.1298 12.1333 18.0445 12.048 17.9271 12.016C17.7991 11.984 17.6231 11.968 17.3991 11.968H17.1751V9.712H17.3991C18.3271 9.712 19.0525 9.78667 19.5751 9.936C20.0978 10.0747 20.4871 10.3093 20.7431 10.64C20.9778 10.9387 21.1271 11.3387 21.1911 11.84C21.2658 12.3307 21.3031 13.0293 21.3031 13.936C21.3031 14.7787 21.2765 15.4347 21.2231 15.904C21.1805 16.3627 21.0685 16.7413 20.8871 17.04C20.6845 17.3707 20.3805 17.6213 19.9751 17.792C19.5698 17.952 19.0098 18.0533 18.2951 18.096V13.936ZM17.3991 18.128C16.4711 18.128 15.7458 18.0587 15.2231 17.92C14.7005 17.7813 14.3111 17.5467 14.0551 17.216C13.8205 16.9173 13.6658 16.5227 13.5911 16.032C13.5271 15.5413 13.4951 14.8427 13.4951 13.936C13.4951 13.104 13.5218 12.4533 13.5751 11.984C13.6285 11.5147 13.7458 11.1253 13.9271 10.816C14.1191 10.4747 14.4178 10.224 14.8231 10.064C15.2285 9.89333 15.7885 9.78667 16.5031 9.744V13.936C16.5031 14.48 16.5085 14.8373 16.5191 15.008C16.5298 15.264 16.5618 15.456 16.6151 15.584C16.6685 15.712 16.7591 15.792 16.8871 15.824C16.9938 15.856 17.1645 15.872 17.3991 15.872H17.6231V18.128H17.3991Z" fill="#44AF98"/>
<path d="M6.70863 6.896L6.69864 6.69625L6.50863 6.70575V6.896H6.70863ZM10.4046 7.056L10.373 7.25377L10.3837 7.2549L10.4046 7.056ZM11.5726 7.248H11.7726V7.08856L11.6172 7.05303L11.5726 7.248ZM11.5726 9.536L11.5537 9.7351L11.7726 9.75595V9.536H11.5726ZM10.5646 9.424L10.5929 9.22601L10.5847 9.22483L10.5764 9.22434L10.5646 9.424ZM9.68463 9.344L9.70559 9.14483L9.69514 9.14428L9.68463 9.344ZM7.44463 9.36L7.45888 9.55959L7.46521 9.55894L7.44463 9.36ZM6.70863 9.552H6.50863V9.8919L6.80575 9.72683L6.70863 9.552ZM5.20463 17.888L5.15535 18.0818L5.15612 18.082L5.20463 17.888ZM3.73263 17.04L3.88363 16.9089L3.88363 16.9089L3.73263 17.04ZM2.98063 15.36L2.78427 15.3981L2.78485 15.4009L2.98063 15.36ZM2.91663 10L3.11448 10.0292L3.11448 10.0292L2.91663 10ZM3.41263 8.4L3.23924 8.3003L3.23843 8.30174L3.41263 8.4ZM4.40463 7.424L4.49945 7.60009L4.49945 7.60009L4.40463 7.424ZM6.03663 6.96H6.23663V6.733L6.01143 6.76159L6.03663 6.96ZM6.10063 14.24L5.90172 14.2609L5.90178 14.2615L6.10063 14.24ZM6.34063 15.152L6.16536 15.2484L6.16698 15.2512L6.34063 15.152ZM6.88463 15.616L6.81627 15.804L6.81892 15.8049L6.88463 15.616ZM7.92463 15.744H8.12463V15.544H7.92463V15.744ZM7.92463 18.128V18.328H8.12463V18.128H7.92463ZM8.59663 13.776H8.79663V13.576H8.59663V13.776ZM7.46063 13.776H7.26063V13.976H7.46063V13.776ZM7.46063 11.456V11.256H7.26063V11.456H7.46063ZM11.6206 11.456H11.8206V11.256H11.6206V11.456ZM11.6206 17.728L11.6662 17.9227L11.8206 17.8866V17.728H11.6206ZM9.74863 18L9.73151 17.8004L9.71953 17.8021L9.74863 18ZM8.59663 18.096H8.39663V18.3013L8.60189 18.2959L8.59663 18.096ZM6.71861 7.09575C7.14352 7.0745 7.49189 7.064 7.76463 7.064V6.664C7.48269 6.664 7.12706 6.67483 6.69864 6.69625L6.71861 7.09575ZM7.76463 7.064C8.71592 7.064 9.58518 7.12743 10.373 7.25349L10.4362 6.85851C9.62407 6.72857 8.73333 6.664 7.76463 6.664V7.064ZM10.3837 7.2549C10.7816 7.29678 11.163 7.35953 11.5281 7.44297L11.6172 7.05303C11.2356 6.9658 10.8383 6.90055 10.4256 6.8571L10.3837 7.2549ZM11.3726 7.248V9.536H11.7726V7.248H11.3726ZM11.5916 9.3369C11.1443 9.2943 10.8121 9.25732 10.5929 9.22601L10.5363 9.62199C10.7652 9.65468 11.105 9.69236 11.5537 9.7351L11.5916 9.3369ZM10.5764 9.22434C10.4 9.21397 10.1106 9.18774 9.70556 9.1451L9.66369 9.5429C10.0693 9.5856 10.3666 9.6127 10.5529 9.62365L10.5764 9.22434ZM9.69514 9.14428C9.2909 9.123 9.01883 9.112 8.88463 9.112V9.512C9.00642 9.512 9.26769 9.52233 9.67411 9.54372L9.69514 9.14428ZM8.88463 9.112C8.23281 9.112 7.7442 9.12794 7.42405 9.16106L7.46521 9.55894C7.76372 9.52806 8.23511 9.512 8.88463 9.512V9.112ZM7.43038 9.16051C7.11259 9.18321 6.83649 9.25217 6.6115 9.37717L6.80575 9.72683C6.96476 9.63849 7.17932 9.57946 7.45887 9.55949L7.43038 9.16051ZM6.90863 9.552V6.896H6.50863V9.552H6.90863ZM7.76463 17.928C6.7056 17.928 5.8706 17.8483 5.25313 17.694L5.15612 18.082C5.81865 18.2477 6.69032 18.328 7.76463 18.328V17.928ZM5.25391 17.6942C4.65566 17.5421 4.20372 17.2775 3.88363 16.9089L3.58162 17.1711C3.96553 17.6132 4.49492 17.9139 5.15535 18.0818L5.25391 17.6942ZM3.88363 16.9089C3.56063 16.5369 3.32116 16.0119 3.1764 15.3191L2.78485 15.4009C2.93876 16.1375 3.20062 16.7324 3.58162 17.1711L3.88363 16.9089ZM3.17696 15.3219C3.04178 14.6252 2.97263 13.6849 2.97263 12.496H2.57263C2.57263 13.6964 2.64214 14.6655 2.78429 15.3981L3.17696 15.3219ZM2.97263 12.496C2.97263 11.4878 3.02045 10.6665 3.11448 10.0292L2.71877 9.97081C2.6208 10.6348 2.57263 11.4775 2.57263 12.496H2.97263ZM3.11448 10.0292C3.20816 9.39428 3.36782 8.88648 3.58682 8.49826L3.23843 8.30174C2.98809 8.74551 2.81709 9.30438 2.71877 9.97081L3.11448 10.0292ZM3.58601 8.49969C3.81359 8.1039 4.11764 7.80568 4.49945 7.60009L4.30981 7.24791C3.85961 7.49032 3.50233 7.84277 3.23924 8.30031L3.58601 8.49969ZM4.49945 7.60009C4.8866 7.39163 5.4045 7.24188 6.06182 7.15841L6.01143 6.76159C5.32475 6.84879 4.75465 7.00837 4.30981 7.24791L4.49945 7.60009ZM5.83663 6.96V12.496H6.23663V6.96H5.83663ZM5.83663 12.496C5.83663 13.2555 5.85795 13.8451 5.90172 14.2609L6.29953 14.2191C6.25797 13.8242 6.23663 13.2512 6.23663 12.496H5.83663ZM5.90178 14.2615C5.94572 14.6679 6.02978 15.0018 6.16538 15.2484L6.51587 15.0556C6.4168 14.8755 6.34086 14.6014 6.29947 14.2185L5.90178 14.2615ZM6.16698 15.2512C6.31762 15.5148 6.53553 15.7019 6.81628 15.804L6.95297 15.428C6.76439 15.3595 6.61963 15.2372 6.51427 15.0528L6.16698 15.2512ZM6.81892 15.8049C7.09532 15.901 7.46801 15.944 7.92463 15.944V15.544C7.48524 15.544 7.16459 15.5016 6.95033 15.4271L6.81892 15.8049ZM7.72463 15.744V18.128H8.12463V15.744H7.72463ZM7.92463 17.928H7.76463V18.328H7.92463V17.928ZM8.59663 13.576H7.46063V13.976H8.59663V13.576ZM7.66063 13.776V11.456H7.26063V13.776H7.66063ZM7.46063 11.656H11.6206V11.256H7.46063V11.656ZM11.4206 11.456V17.728H11.8206V11.456H11.4206ZM11.575 17.5333C11.0863 17.6477 10.4725 17.7372 9.73155 17.8007L9.76571 18.1993C10.5181 18.1348 11.1523 18.043 11.6662 17.9227L11.575 17.5333ZM9.71953 17.8021C9.36554 17.8542 8.98954 17.8856 8.59136 17.8961L8.60189 18.2959C9.01437 18.2851 9.40638 18.2525 9.77772 18.1979L9.71953 17.8021ZM8.79663 18.096V13.776H8.39663V18.096H8.79663ZM18.2791 12.848L18.0793 12.8563L18.0795 12.8597L18.2791 12.848ZM18.1831 12.272L17.9964 12.3438L17.9985 12.3489L18.1831 12.272ZM17.9271 12.016L17.9798 11.823L17.9756 11.822L17.9271 12.016ZM17.1751 11.968H16.9751V12.168H17.1751V11.968ZM17.1751 9.712V9.512H16.9751V9.712H17.1751ZM19.5751 9.936L19.5202 10.1283L19.5238 10.1293L19.5751 9.936ZM20.7431 10.64L20.585 10.7624L20.5859 10.7636L20.7431 10.64ZM21.1911 11.84L20.9927 11.8653L20.9934 11.8701L21.1911 11.84ZM21.2231 15.904L21.0244 15.8814L21.024 15.8855L21.2231 15.904ZM20.8871 17.04L21.0576 17.1445L21.0581 17.1438L20.8871 17.04ZM19.9751 17.792L20.0486 17.9781L20.0527 17.9763L19.9751 17.792ZM18.2951 18.096H18.0951V18.3083L18.307 18.2956L18.2951 18.096ZM15.2231 17.92L15.1718 18.1133L15.1718 18.1133L15.2231 17.92ZM14.0551 17.216L14.2133 17.0936L14.2124 17.0924L14.0551 17.216ZM13.5911 16.032L13.3928 16.0579L13.3934 16.0621L13.5911 16.032ZM13.9271 10.816L14.0997 10.9172L14.1014 10.9141L13.9271 10.816ZM14.8231 10.064L14.8966 10.2501L14.9007 10.2483L14.8231 10.064ZM16.5031 9.744H16.7031V9.5317L16.4912 9.54435L16.5031 9.744ZM16.5191 15.008L16.719 14.9997L16.7187 14.9955L16.5191 15.008ZM16.6151 15.584L16.7997 15.5071L16.7997 15.5071L16.6151 15.584ZM16.8871 15.824L16.9447 15.6322L16.9356 15.63L16.8871 15.824ZM17.6231 15.872H17.8231V15.672H17.6231V15.872ZM17.6231 18.128V18.328H17.8231V18.128H17.6231ZM18.4951 13.936C18.4951 13.393 18.4898 13.0244 18.4788 12.8363L18.0795 12.8597C18.0897 13.0342 18.0951 13.391 18.0951 13.936H18.4951ZM18.479 12.8397C18.468 12.5766 18.4349 12.3562 18.3677 12.1951L17.9985 12.3489C18.0381 12.4438 18.0689 12.6074 18.0793 12.8563L18.479 12.8397ZM18.3698 12.2002C18.2993 12.0169 18.1723 11.8756 17.9797 11.823L17.8745 12.209C17.9166 12.2204 17.9603 12.2498 17.9965 12.3438L18.3698 12.2002ZM17.9756 11.822C17.8245 11.7842 17.6298 11.768 17.3991 11.768V12.168C17.6164 12.168 17.7737 12.1838 17.8786 12.21L17.9756 11.822ZM17.3991 11.768H17.1751V12.168H17.3991V11.768ZM17.3751 11.968V9.712H16.9751V11.968H17.3751ZM17.1751 9.912H17.3991V9.512H17.1751V9.912ZM17.3991 9.912C18.3197 9.912 19.0236 9.98643 19.5202 10.1283L19.6301 9.7437C19.0813 9.58691 18.3346 9.512 17.3991 9.512V9.912ZM19.5238 10.1293C20.0166 10.26 20.3628 10.4755 20.585 10.7624L20.9013 10.5176C20.6114 10.1432 20.179 9.88929 19.6264 9.74269L19.5238 10.1293ZM20.5859 10.7636C20.792 11.0259 20.9318 11.3883 20.9927 11.8653L21.3895 11.8147C21.3224 11.289 21.1636 10.8514 20.9004 10.5164L20.5859 10.7636ZM20.9934 11.8701C21.0658 12.3458 21.1031 13.0326 21.1031 13.936H21.5031C21.5031 13.026 21.4658 12.3155 21.3888 11.8099L20.9934 11.8701ZM21.1031 13.936C21.1031 14.776 21.0765 15.4232 21.0244 15.8814L21.4218 15.9266C21.4764 15.4461 21.5031 14.7814 21.5031 13.936H21.1031ZM21.024 15.8855C20.9833 16.3232 20.8776 16.6703 20.7162 16.9362L21.0581 17.1438C21.2593 16.8123 21.3776 16.4022 21.4223 15.9225L21.024 15.8855ZM20.7166 16.9355C20.5387 17.2258 20.2697 17.451 19.8975 17.6077L20.0527 17.9763C20.4912 17.7917 20.8303 17.5155 21.0576 17.1445L20.7166 16.9355ZM19.9017 17.606C19.5246 17.7548 18.9885 17.8542 18.2832 17.8964L18.307 18.2956C19.0311 18.2524 19.615 18.1492 20.0486 17.978L19.9017 17.606ZM18.4951 18.096V13.936H18.0951V18.096H18.4951ZM17.3991 17.928C16.478 17.928 15.7726 17.8589 15.2744 17.7267L15.1718 18.1133C15.719 18.2585 16.4643 18.328 17.3991 18.328V17.928ZM15.2744 17.7267C14.7817 17.596 14.4354 17.3805 14.2133 17.0936L13.897 17.3384C14.1868 17.7128 14.6192 17.9667 15.1718 18.1133L15.2744 17.7267ZM14.2124 17.0924C14.0046 16.828 13.8599 16.4686 13.7888 16.0019L13.3934 16.0621C13.4717 16.5767 13.6363 17.0067 13.8979 17.3396L14.2124 17.0924ZM13.7894 16.0061C13.7271 15.5284 13.6951 14.8399 13.6951 13.936H13.2951C13.2951 14.8455 13.3271 15.5543 13.3928 16.0579L13.7894 16.0061ZM13.6951 13.936C13.6951 13.1068 13.7218 12.4648 13.7738 12.0066L13.3764 11.9614C13.3218 12.4418 13.2951 13.1012 13.2951 13.936H13.6951ZM13.7738 12.0066C13.825 11.5566 13.9362 11.1961 14.0997 10.9171L13.7546 10.7149C13.5554 11.0546 13.4319 11.4727 13.3764 11.9614L13.7738 12.0066ZM14.1014 10.9141C14.2684 10.6173 14.5288 10.3952 14.8966 10.25L14.7497 9.87797C14.3067 10.0528 13.9699 10.332 13.7528 10.7179L14.1014 10.9141ZM14.9007 10.2483C15.2762 10.0902 15.8106 9.9857 16.515 9.94364L16.4912 9.54435C15.7663 9.58763 15.1807 9.69644 14.7455 9.87967L14.9007 10.2483ZM16.3031 9.744V13.936H16.7031V9.744H16.3031ZM16.3031 13.936C16.3031 14.4787 16.3084 14.8425 16.3195 15.0205L16.7187 14.9955C16.7085 14.8322 16.7031 14.4813 16.7031 13.936H16.3031ZM16.3193 15.0163C16.3303 15.2794 16.3634 15.4998 16.4305 15.6609L16.7997 15.5071C16.7602 15.4122 16.7293 15.2486 16.719 14.9997L16.3193 15.0163ZM16.4305 15.6609C16.5067 15.8438 16.6457 15.9698 16.8386 16.018L16.9356 15.63C16.8725 15.6142 16.8302 15.5802 16.7997 15.5071L16.4305 15.6609ZM16.8297 16.0156C16.966 16.0565 17.1616 16.072 17.3991 16.072V15.672C17.1673 15.672 17.0215 15.6555 16.9446 15.6324L16.8297 16.0156ZM17.3991 16.072H17.6231V15.672H17.3991V16.072ZM17.4231 15.872V18.128H17.8231V15.872H17.4231ZM17.6231 17.928H17.3991V18.328H17.6231V17.928Z" fill="black"/>
</g>
<circle cx="12" cy="12" r="11.35" stroke="#44AF98" stroke-width="0.7"/>
<defs>
<filter id="filter0_b" x="2.47262" y="6.564" width="19.1305" height="11.864" filterUnits="userSpaceOnUse" color-interpolation-filters="sRGB">
<feFlood flood-opacity="0" result="BackgroundImageFix"/>
<feGaussianBlur in="BackgroundImage" stdDeviation="0.05"/>
<feComposite in2="SourceAlpha" operator="in" result="effect1_backgroundBlur"/>
<feBlend mode="normal" in="SourceGraphic" in2="effect1_backgroundBlur" result="shape"/>
</filter>
</defs>
</svg>
